<?xml version="1.0" standalone="no"?>
<!DOCTYPE svg PUBLIC "-//W3C//DTD SVG 20010904//EN"
 "http://www.w3.org/TR/2001/REC-SVG-20010904/DTD/svg10.dtd">
<svg version="1.0" xmlns="http://www.w3.org/2000/svg"
 width="242.000000pt" height="98.000000pt" viewBox="0 0 242.000000 98.000000"
 preserveAspectRatio="xMidYMid meet">

<g transform="translate(0.000000,98.000000) scale(0.100000,-0.100000)"
fill="#000000" stroke="none">
<path d="M389 823 c-52 -47 -141 -133 -199 -190 -59 -57 -109 -101 -113 -97
-4 4 -7 83 -7 176 0 105 -4 168 -10 168 -14 0 -14 -797 0 -805 7 -4 10 53 10
164 0 93 4 172 9 175 4 3 32 -3 62 -13 69 -25 220 -63 225 -58 3 2 -47 19
-110 37 -134 38 -176 60 -176 92 0 17 51 73 181 201 100 97 186 177 191 177 4
0 8 -54 8 -120 0 -113 1 -120 20 -120 18 0 20 7 20 55 0 52 1 55 25 55 20 0
25 5 25 25 0 20 -5 25 -25 25 -18 0 -25 5 -25 20 0 15 7 20 25 20 20 0 25 5
25 24 0 21 -4 23 -40 23 -49 -1 -59 7 -31 25 21 13 28 28 12 28 -4 0 -51 -39
-102 -87z"/>
<path d="M1080 736 l0 -126 25 0 26 0 -3 123 c-3 118 -4 122 -25 125 -23 3
-23 2 -23 -122z"/>
<path d="M617 802 c-23 -26 -24 -154 -1 -176 22 -23 81 -21 94 3 19 36 13 61
-15 61 -20 0 -25 -5 -25 -26 0 -14 -4 -23 -10 -19 -5 3 -10 19 -10 36 0 27 3
29 35 29 35 0 35 0 35 45 0 34 -5 47 -19 55 -30 15 -66 12 -84 -8z m53 -42 c0
-16 -4 -30 -10 -30 -11 0 -14 43 -3 53 11 12 13 8 13 -23z"/>
<path d="M793 808 c-6 -7 -13 -21 -16 -30 -5 -14 -1 -18 17 -18 14 0 26 5 28
12 5 13 28 2 28 -13 0 -5 -16 -17 -35 -26 -40 -19 -53 -51 -39 -92 8 -23 15
-26 62 -28 l52 -2 0 93 c0 58 -4 96 -12 104 -16 16 -73 15 -85 0z m55 -125
c-3 -42 -21 -51 -26 -15 -4 29 4 52 18 52 7 0 10 -15 8 -37z"/>
<path d="M950 714 c0 -97 1 -104 20 -104 18 0 20 7 20 81 0 72 2 81 20 86 11
3 20 13 20 22 0 13 -10 17 -40 18 l-40 2 0 -105z"/>
<path d="M1197 802 c-12 -13 -17 -37 -17 -86 0 -89 10 -106 60 -106 42 0 60
18 60 59 0 16 -6 21 -25 21 -20 0 -25 -5 -25 -25 0 -14 -4 -25 -10 -25 -5 0
-10 16 -10 35 0 33 2 35 35 35 34 0 35 1 35 39 0 23 -7 46 -16 55 -21 22 -67
20 -87 -2z m53 -42 c0 -16 -4 -30 -10 -30 -11 0 -14 43 -3 53 11 12 13 8 13
-23z"/>
<path d="M1366 804 c-27 -26 -19 -60 19 -91 33 -26 47 -63 25 -63 -5 0 -10 7
-10 15 0 9 -9 15 -25 15 -27 0 -32 -18 -15 -51 12 -22 78 -27 98 -7 24 24 14
70 -25 110 -20 21 -33 41 -28 45 4 5 10 2 12 -4 6 -18 53 -16 53 1 0 24 -29
46 -60 46 -16 0 -36 -7 -44 -16z"/>
<path d="M1537 802 c-26 -29 -20 -58 19 -90 27 -23 35 -35 31 -53 l-4 -24 -8
23 c-10 29 -55 31 -55 3 0 -29 27 -51 64 -51 41 0 56 15 56 58 0 25 -8 41 -37
67 -21 19 -33 38 -29 42 5 4 11 2 13 -4 6 -18 53 -16 53 1 0 42 -73 62 -103
28z"/>
<path d="M2252 720 c0 -14 2 -19 5 -12 2 6 2 18 0 25 -3 6 -5 1 -5 -13z"/>
<path d="M2140 688 c0 -18 18 -34 28 -24 3 4 -2 14 -11 23 -16 16 -17 16 -17
1z"/>
<path d="M2351 686 c-8 -9 -11 -19 -7 -23 9 -9 29 13 24 27 -2 8 -8 7 -17 -4z"/>
<path d="M2192 655 c-42 -35 -49 -76 -24 -134 11 -25 23 -54 26 -63 4 -14 17
-18 60 -18 l55 0 25 56 c14 31 26 67 26 81 0 88 -101 134 -168 78z m125 -17
c29 -27 30 -70 3 -132 -12 -25 -23 -46 -27 -46 -5 0 4 60 14 86 3 9 -2 14 -15
14 -11 0 -22 5 -24 10 -4 13 -58 -10 -58 -25 0 -6 4 -25 9 -42 16 -54 -4 -46
-27 10 -28 67 -28 92 3 122 32 33 89 34 122 3z m-43 -145 c-12 -35 -26 -35
-35 1 -11 39 7 64 30 42 11 -12 13 -22 5 -43z"/>
<path d="M2095 600 c3 -5 12 -10 20 -10 8 0 17 5 20 10 4 6 -5 10 -20 10 -15
0 -24 -4 -20 -10z"/>
<path d="M2380 600 c0 -5 9 -10 20 -10 11 0 20 5 20 10 0 6 -9 10 -20 10 -11
0 -20 -4 -20 -10z"/>
<path d="M839 543 c-14 -8 -34 -28 -45 -44 -25 -37 -30 -36 -38 7 -5 26 -12
34 -24 32 -15 -3 -17 -16 -13 -103 5 -142 25 -151 70 -30 22 61 64 125 82 125
5 0 9 -36 9 -81 0 -44 5 -89 10 -100 16 -28 61 -24 93 9 22 23 64 102 54 102
-2 0 -18 -23 -36 -51 -21 -34 -37 -49 -49 -47 -14 3 -17 17 -20 88 -2 46 -8
90 -14 97 -14 17 -47 16 -79 -4z"/>
<path d="M1535 551 c-98 -24 -138 -124 -76 -193 27 -30 34 -33 88 -32 43 0 72
8 113 28 56 29 134 85 127 92 -2 2 -39 -16 -82 -41 -121 -69 -204 -69 -221 -1
-12 48 -2 60 51 69 28 5 61 14 75 21 33 16 37 42 8 51 -42 12 -53 13 -83 6z
m55 -30 c0 -12 -69 -35 -77 -27 -10 10 30 35 55 36 12 0 22 -4 22 -9z"/>
<path d="M475 526 c-43 -19 -69 -62 -69 -118 -1 -58 18 -80 69 -80 26 0 45 8
64 26 15 14 36 26 48 26 24 0 69 33 84 63 9 16 3 14 -23 -10 -51 -49 -68 -44
-68 17 0 79 -37 106 -105 76z m63 -59 c2 -22 -1 -37 -8 -37 -14 0 -31 46 -23
65 10 27 28 10 31 -28z m-55 -37 c10 -16 22 -30 28 -30 19 0 8 -30 -17 -47
-25 -16 -27 -16 -40 2 -15 20 -17 46 -8 83 8 29 16 28 37 -8z"/>
<path d="M1124 521 c-63 -39 -82 -138 -34 -185 16 -17 33 -21 78 -20 64 0 120
24 190 81 49 40 58 66 10 30 -74 -55 -182 -92 -223 -77 -37 14 -49 46 -36 90
19 63 58 84 119 65 16 -5 22 -3 22 8 0 32 -78 37 -126 8z"/>
<path d="M1827 534 c-4 -4 -7 -119 -7 -257 0 -194 3 -248 13 -245 8 3 16 46
23 126 22 226 47 315 97 346 24 16 51 -4 55 -40 2 -25 -3 -32 -35 -49 -70 -37
-45 -106 26 -72 14 7 33 28 43 48 12 25 28 40 57 51 23 9 41 22 41 28 0 9 -4
9 -13 2 -7 -6 -25 -15 -40 -21 -25 -10 -28 -8 -45 27 -22 48 -59 62 -106 40
-19 -10 -40 -30 -47 -47 -18 -41 -25 -39 -32 10 -6 43 -18 64 -30 53z m183
-136 c0 -14 -30 -48 -42 -48 -15 0 -8 39 10 49 23 14 32 13 32 -1z"/>
<path d="M2190 420 c0 -6 28 -10 65 -10 37 0 65 4 65 10 0 6 -28 10 -65 10
-37 0 -65 -4 -65 -10z"/>
<path d="M2210 377 c0 -47 52 -64 85 -27 28 31 13 50 -40 50 -40 0 -45 -2 -45
-23z m78 -9 c-3 -7 -15 -13 -28 -13 -13 0 -25 6 -27 13 -3 8 6 12 27 12 21 0
30 -4 28 -12z"/>
</g>
</svg>
